<?xml version="1.0" encoding="UTF-8" standalone="no"?>
<!DOCTYPE svg PUBLIC "-//W3C//DTD SVG 1.1//EN"
 "http://www.w3.org/Graphics/SVG/1.1/DTD/svg11.dtd">
<!-- Generated by graphviz version 2.40.1 (20161225.0304)
 -->
<!-- Pages: 1 -->
<svg width="346pt" height="346pt"
 viewBox="0.00 0.00 345.61 346.00" xmlns="http://www.w3.org/2000/svg" xmlns:xlink="http://www.w3.org/1999/xlink">
<g id="graph0" class="graph" transform="scale(1 1) rotate(0) translate(4 342)">
<polygon fill="#ffffff" stroke="transparent" points="-4,4 -4,-342 341.608,-342 341.608,4 -4,4"/>
<!-- node0 -->
<g id="node1" class="node">
<title>node0</title>
<g id="a_node1"><a xlink:title="child_links:&#10;&#45; child_index: 1&#10;&#45; child_index: 11&#10; &#160;type: Split Range&#10;display_name: Distributed Union&#10;kind: 1&#10;metadata:&#10; &#160;subquery_cluster_node: &quot;1&quot;&#10;">
<polygon fill="none" stroke="#000000" points="326.9122,-338 10.6958,-338 10.6958,-302 326.9122,-302 326.9122,-338"/>
<text text-anchor="start" x="118.061" y="-322.4" font-family="Times,serif" font-weight="bold" font-size="14.00" fill="#000000">Distributed Union</text>
<text text-anchor="start" x="18.5" y="-308.4" font-family="Times,serif" font-size="14.00" fill="#000000">Split Range: STARTS_WITH($SongName, @prefix)</text>
</a>
</g>
</g>
<!-- node1 -->
<g id="node2" class="node">
<title>node1</title>
<g id="a_node2"><a xlink:title="child_links:&#10;&#45; child_index: 2&#10;display_name: Distributed Union&#10;index: 1&#10;kind: 1&#10;metadata:&#10; &#160;call_type: Local&#10; &#160;subquery_cluster_node: &quot;2&quot;&#10;">
<polygon fill="none" stroke="#000000" points="245.1625,-266 92.4455,-266 92.4455,-230 245.1625,-230 245.1625,-266"/>
<text text-anchor="start" x="100.3748" y="-244.8" font-family="Times,serif" font-weight="bold" font-size="14.00" fill="#000000">Local Distributed Union</text>
</a>
</g>
</g>
<!-- node1&#45;&gt;node0 -->
<g id="edge4" class="edge">
<title>node1&#45;&gt;node0</title>
<path fill="none" stroke="#000000" stroke-dasharray="5,2" d="M168.804,-266.1686C168.804,-273.869 168.804,-283.0257 168.804,-291.5834"/>
<polygon fill="#000000" stroke="#000000" points="165.3041,-291.5867 168.804,-301.5867 172.3041,-291.5868 165.3041,-291.5867"/>
</g>
<!-- node2 -->
<g id="node3" class="node">
<title>node2</title>
<g id="a_node3"><a xlink:title="child_links:&#10;&#45; child_index: 3&#10;&#45; child_index: 10&#10;display_name: Serialize Result&#10;index: 2&#10;kind: 1&#10;">
<polygon fill="none" stroke="#000000" points="263.89,-194 73.718,-194 73.718,-158 263.89,-158 263.89,-194"/>
<text text-anchor="start" x="124.6788" y="-178.4" font-family="Times,serif" font-weight="bold" font-size="14.00" fill="#000000">Serialize Result</text>
<text text-anchor="start" x="81.5112" y="-164.4" font-family="Times,serif" font-size="14.00" fill="#000000">Result.SongName:$SongName</text>
</a>
</g>
</g>
<!-- node2&#45;&gt;node1 -->
<g id="edge3" class="edge">
<title>node2&#45;&gt;node1</title>
<path fill="none" stroke="#000000" d="M168.804,-194.1686C168.804,-201.869 168.804,-211.0257 168.804,-219.5834"/>
<polygon fill="#000000" stroke="#000000" points="165.3041,-219.5867 168.804,-229.5867 172.3041,-219.5868 165.3041,-219.5867"/>
</g>
<!-- node3 -->
<g id="node4" class="node">
<title>node3</title>
<g id="a_node4"><a xlink:title="child_links:&#10;&#45; child_index: 4&#10;&#45; child_index: 9&#10; &#160;type: Seek Condition&#10;display_name: FilterScan&#10;index: 3&#10;kind: 1&#10;">
<polygon fill="none" stroke="#000000" points="337.4122,-122 .1958,-122 .1958,-86 337.4122,-86 337.4122,-122"/>
<text text-anchor="start" x="140.0333" y="-106.4" font-family="Times,serif" font-weight="bold" font-size="14.00" fill="#000000">FilterScan</text>
<text text-anchor="start" x="8" y="-92.4" font-family="Times,serif" font-size="14.00" fill="#000000">Seek Condition: STARTS_WITH($SongName, @prefix)</text>
</a>
</g>
</g>
<!-- node3&#45;&gt;node2 -->
<g id="edge2" class="edge">
<title>node3&#45;&gt;node2</title>
<path fill="none" stroke="#000000" d="M168.804,-122.1686C168.804,-129.869 168.804,-139.0257 168.804,-147.5834"/>
<polygon fill="#000000" stroke="#000000" points="165.3041,-147.5867 168.804,-157.5867 172.3041,-147.5868 165.3041,-147.5867"/>
</g>
<!-- node4 -->
<g id="node5" class="node">
<title>node4</title>
<g id="a_node5"><a xlink:title="child_links:&#10;&#45; child_index: 5&#10; &#160;variable: SongName&#10;display_name: Scan&#10;index: 4&#10;kind: 1&#10;metadata:&#10; &#160;scan_target: SongsBySongName&#10; &#160;scan_type: IndexScan&#10;">
<polygon fill="none" stroke="#000000" points="252.8426,-50 84.7654,-50 84.7654,0 252.8426,0 252.8426,-50"/>
<text text-anchor="start" x="137.5105" y="-34.4" font-family="Times,serif" font-weight="bold" font-size="14.00" fill="#000000">Index Scan</text>
<text text-anchor="start" x="92.7847" y="-20.4" font-family="Times,serif" font-size="14.00" fill="#000000">Index: SongsBySongName</text>
<text text-anchor="start" x="92.7847" y="-6.4" font-family="Times,serif" font-size="14.00" fill="#000000">$SongName:=SongName</text>
</a>
</g>
</g>
<!-- node4&#45;&gt;node3 -->
<g id="edge1" class="edge">
<title>node4&#45;&gt;node3</title>
<path fill="none" stroke="#000000" d="M168.804,-50.4309C168.804,-58.4598 168.804,-67.3807 168.804,-75.603"/>
<polygon fill="#000000" stroke="#000000" points="165.3041,-75.8758 168.804,-85.8758 172.3041,-75.8758 165.3041,-75.8758"/>
</g>
</g>
</svg>
